<svg width="213" height="22" viewBox="0 0 213 22" fill="none" xmlns="http://www.w3.org/2000/svg">
<path d="M3.88846 14.1854V21.7618H0V0.238158H6.80843C8.20577 0.238158 9.41519 0.406855 10.4367 0.744248C11.4582 1.08164 12.3014 1.553 12.9664 2.15832C13.6313 2.76364 14.1228 3.48805 14.4408 4.33153C14.7588 5.17501 14.9178 6.09788 14.9178 7.10013C14.9178 8.14208 14.7492 9.09968 14.4119 9.97294C14.0746 10.8363 13.5687 11.5805 12.8941 12.2057C12.2195 12.8309 11.3763 13.3171 10.3644 13.6644C9.35255 14.0117 8.16722 14.1854 6.80843 14.1854H3.88846ZM3.88846 11.0595H6.80843C7.52155 11.0595 8.14313 10.9702 8.67315 10.7916C9.20318 10.6031 9.64166 10.3401 9.98858 10.0027C10.3355 9.65539 10.5957 9.23861 10.7692 8.75237C10.9426 8.2562 11.0294 7.70546 11.0294 7.10013C11.0294 6.52458 10.9426 6.00361 10.7692 5.53721C10.5957 5.07082 10.3355 4.67388 9.98858 4.34641C9.64166 4.01894 9.20318 3.77086 8.67315 3.60216C8.14313 3.42354 7.52155 3.33424 6.80843 3.33424H3.88846V11.0595Z" fill="#333333"/>
<path d="M37.9884 11C37.9884 12.5778 37.733 14.0415 37.2223 15.3911C36.7115 16.7307 35.9936 17.8917 35.0685 18.8742C34.1433 19.8566 33.0303 20.6256 31.7293 21.1813C30.4283 21.7271 28.9876 22 27.4072 22C25.8267 22 24.3812 21.7271 23.0706 21.1813C21.7696 20.6256 20.6517 19.8566 19.717 18.8742C18.7918 17.8917 18.0739 16.7307 17.5631 15.3911C17.0524 14.0415 16.797 12.5778 16.797 11C16.797 9.42219 17.0524 7.96346 17.5631 6.62382C18.0739 5.27424 18.7918 4.10825 19.717 3.12584C20.6517 2.14344 21.7696 1.37934 23.0706 0.833558C24.3812 0.277853 25.8267 0 27.4072 0C28.9876 0 30.4283 0.277853 31.7293 0.833558C33.0303 1.38926 34.1433 2.15832 35.0685 3.14073C35.9936 4.11322 36.7115 5.27424 37.2223 6.62382C37.733 7.96346 37.9884 9.42219 37.9884 11ZM33.9988 11C33.9988 9.81913 33.8446 8.76229 33.5362 7.8295C33.2374 6.88678 32.8038 6.08796 32.2352 5.43302C31.6666 4.77808 30.9728 4.27695 30.1537 3.92963C29.3442 3.58232 28.4287 3.40866 27.4072 3.40866C26.3857 3.40866 25.4653 3.58232 24.6462 3.92963C23.8271 4.27695 23.1284 4.77808 22.5502 5.43302C21.9816 6.08796 21.5431 6.88678 21.2348 7.8295C20.9264 8.76229 20.7722 9.81913 20.7722 11C20.7722 12.1809 20.9264 13.2427 21.2348 14.1854C21.5431 15.1182 21.9816 15.912 22.5502 16.567C23.1284 17.212 23.8271 17.7082 24.6462 18.0555C25.4653 18.4028 26.3857 18.5765 27.4072 18.5765C28.4287 18.5765 29.3442 18.4028 30.1537 18.0555C30.9728 17.7082 31.6666 17.212 32.2352 16.567C32.8038 15.912 33.2374 15.1182 33.5362 14.1854C33.8446 13.2427 33.9988 12.1809 33.9988 11Z" fill="#333333"/>
<path d="M54.6623 0.238158V3.52774H48.3743V21.7618H44.4858V3.52774H38.1689V0.238158H54.6623Z" fill="#333333"/>
<path d="M70.3095 0.238158V3.42354H61.0436V9.39242H68.3435V12.4736H61.0436V18.5616H70.3095V21.7618H57.1263V0.238158H70.3095Z" fill="#333333"/>
<path d="M77.6893 14.1854V21.7618H73.8009V0.238158H80.6093C82.0066 0.238158 83.216 0.406855 84.2376 0.744248C85.2591 1.08164 86.1023 1.553 86.7672 2.15832C87.4322 2.76364 87.9236 3.48805 88.2417 4.33153C88.5597 5.17501 88.7187 6.09788 88.7187 7.10013C88.7187 8.14208 88.55 9.09968 88.2127 9.97294C87.8755 10.8363 87.3695 11.5805 86.6949 12.2057C86.0204 12.8309 85.1771 13.3171 84.1653 13.6644C83.1534 14.0117 81.9681 14.1854 80.6093 14.1854H77.6893ZM77.6893 11.0595H80.6093C81.3224 11.0595 81.944 10.9702 82.474 10.7916C83.004 10.6031 83.4425 10.3401 83.7894 10.0027C84.1364 9.65539 84.3966 9.23861 84.57 8.75237C84.7435 8.2562 84.8302 7.70546 84.8302 7.10013C84.8302 6.52458 84.7435 6.00361 84.57 5.53721C84.3966 5.07082 84.1364 4.67388 83.7894 4.34641C83.4425 4.01894 83.004 3.77086 82.474 3.60216C81.944 3.42354 81.3224 3.33424 80.6093 3.33424H77.6893V11.0595Z" fill="#333333"/>
<path d="M107.882 21.7618H104.875C104.538 21.7618 104.259 21.6775 104.037 21.5088C103.825 21.3302 103.671 21.1119 103.574 20.8539L102.013 16.4628H93.3545L91.7934 20.8539C91.7163 21.0821 91.5621 21.2905 91.3308 21.479C91.1091 21.6676 90.8345 21.7618 90.5068 21.7618H87.4857L95.6963 0.238158H99.6715L107.882 21.7618ZM94.3519 13.6346H101.016L98.4717 6.47497C98.356 6.15742 98.226 5.7853 98.0814 5.35859C97.9465 4.92197 97.8116 4.45061 97.6767 3.94452C97.5417 4.45061 97.4068 4.92197 97.2719 5.35859C97.1466 5.79522 97.0213 6.17727 96.8961 6.50474L94.3519 13.6346Z" fill="#333333"/>
<path d="M112.073 0.238158C112.246 0.238158 112.391 0.248081 112.507 0.267928C112.622 0.277851 112.723 0.307622 112.81 0.357238C112.907 0.396932 112.998 0.461434 113.085 0.550743C113.172 0.63013 113.268 0.739287 113.374 0.878213L124.345 15.272C124.307 14.9247 124.278 14.5873 124.259 14.2598C124.249 13.9224 124.244 13.6098 124.244 13.3221V0.238158H127.67V21.7618H125.661C125.353 21.7618 125.097 21.7122 124.895 21.613C124.692 21.5138 124.495 21.3351 124.302 21.0771L113.374 6.7429C113.403 7.06044 113.422 7.37799 113.432 7.69554C113.451 8.00316 113.461 8.28597 113.461 8.54398V21.7618H110.035V0.238158H112.073Z" fill="#333333"/>
<path d="M148.68 4.15291C148.574 4.37122 148.449 4.52503 148.304 4.61434C148.169 4.70365 148.005 4.74831 147.813 4.74831C147.62 4.74831 147.403 4.67388 147.162 4.52503C146.921 4.36626 146.637 4.1926 146.309 4.00406C145.982 3.81552 145.596 3.64682 145.153 3.49797C144.719 3.3392 144.204 3.25981 143.606 3.25981C143.067 3.25981 142.594 3.32927 142.19 3.4682C141.794 3.5972 141.457 3.78078 141.178 4.01894C140.908 4.2571 140.706 4.54488 140.571 4.88227C140.436 5.20974 140.368 5.57194 140.368 5.96888C140.368 6.47497 140.503 6.89671 140.773 7.2341C141.052 7.57149 141.419 7.85927 141.872 8.09743C142.325 8.33559 142.84 8.54894 143.418 8.73748C143.996 8.92603 144.584 9.12945 145.182 9.34777C145.789 9.55616 146.382 9.80424 146.96 10.092C147.538 10.3699 148.054 10.7271 148.507 11.1637C148.959 11.5904 149.321 12.1164 149.591 12.7415C149.87 13.3667 150.01 14.1258 150.01 15.0189C150.01 15.9914 149.846 16.9044 149.518 17.7578C149.2 18.6013 148.728 19.3406 148.102 19.9756C147.485 20.6008 146.729 21.097 145.832 21.4641C144.936 21.8214 143.91 22 142.753 22C142.088 22 141.433 21.9305 140.787 21.7916C140.142 21.6626 139.52 21.4741 138.923 21.226C138.335 20.9779 137.781 20.6802 137.26 20.3329C136.75 19.9856 136.292 19.5986 135.887 19.1719L137.015 17.2517C137.121 17.1128 137.246 16.9986 137.39 16.9093C137.545 16.8101 137.713 16.7605 137.896 16.7605C138.137 16.7605 138.397 16.8647 138.677 17.0731C138.956 17.2715 139.284 17.4948 139.66 17.7429C140.045 17.991 140.493 18.2192 141.004 18.4276C141.525 18.6261 142.146 18.7253 142.869 18.7253C143.977 18.7253 144.835 18.4574 145.442 17.9215C146.049 17.3757 146.353 16.5968 146.353 15.5846C146.353 15.0189 146.213 14.5575 145.934 14.2003C145.664 13.843 145.302 13.5453 144.849 13.3072C144.396 13.0591 143.881 12.8507 143.303 12.682C142.724 12.5133 142.137 12.3297 141.539 12.1313C140.942 11.9328 140.354 11.6946 139.776 11.4168C139.197 11.1389 138.682 10.7767 138.229 10.3302C137.776 9.88363 137.41 9.32792 137.13 8.66306C136.86 7.98827 136.725 7.15968 136.725 6.17727C136.725 5.39332 136.875 4.62923 137.174 3.88498C137.482 3.14073 137.925 2.48083 138.503 1.90528C139.091 1.32972 139.809 0.86829 140.657 0.520974C141.505 0.173658 142.474 0 143.563 0C144.796 0 145.933 0.198466 146.974 0.595399C148.015 0.992331 148.902 1.54804 149.634 2.26252L148.68 4.15291Z" fill="#333333"/>
<path d="M170.612 21.7618H166.695V12.3545H156.894V21.7618H152.977V0.238158H156.894V9.49662H166.695V0.238158H170.612V21.7618Z" fill="#333333"/>
<path d="M194.879 11C194.879 12.5778 194.623 14.0415 194.113 15.3911C193.602 16.7307 192.884 17.8917 191.959 18.8742C191.034 19.8566 189.921 20.6256 188.62 21.1813C187.319 21.7271 185.878 22 184.298 22C182.717 22 181.272 21.7271 179.961 21.1813C178.66 20.6256 177.542 19.8566 176.607 18.8742C175.682 17.8917 174.964 16.7307 174.453 15.3911C173.943 14.0415 173.687 12.5778 173.687 11C173.687 9.42219 173.943 7.96346 174.453 6.62382C174.964 5.27424 175.682 4.10825 176.607 3.12584C177.542 2.14344 178.66 1.37934 179.961 0.833558C181.272 0.277853 182.717 0 184.298 0C185.878 0 187.319 0.277853 188.62 0.833558C189.921 1.38926 191.034 2.15832 191.959 3.14073C192.884 4.11322 193.602 5.27424 194.113 6.62382C194.623 7.96346 194.879 9.42219 194.879 11ZM190.889 11C190.889 9.81913 190.735 8.76229 190.427 7.8295C190.128 6.88678 189.694 6.08796 189.126 5.43302C188.557 4.77808 187.863 4.27695 187.044 3.92963C186.235 3.58232 185.319 3.40866 184.298 3.40866C183.276 3.40866 182.356 3.58232 181.537 3.92963C180.717 4.27695 180.019 4.77808 179.441 5.43302C178.872 6.08796 178.434 6.88678 178.125 7.8295C177.817 8.76229 177.663 9.81913 177.663 11C177.663 12.1809 177.817 13.2427 178.125 14.1854C178.434 15.1182 178.872 15.912 179.441 16.567C180.019 17.212 180.717 17.7082 181.537 18.0555C182.356 18.4028 183.276 18.5765 184.298 18.5765C185.319 18.5765 186.235 18.4028 187.044 18.0555C187.863 17.7082 188.557 17.212 189.126 16.567C189.694 15.912 190.128 15.1182 190.427 14.1854C190.735 13.2427 190.889 12.1809 190.889 11Z" fill="#333333"/>
<path d="M201.971 14.1854V21.7618H198.082V0.238158H204.891C206.288 0.238158 207.497 0.406855 208.519 0.744248C209.54 1.08164 210.384 1.553 211.049 2.15832C211.713 2.76364 212.205 3.48805 212.523 4.33153C212.841 5.17501 213 6.09788 213 7.10013C213 8.14208 212.831 9.09968 212.494 9.97294C212.157 10.8363 211.651 11.5805 210.976 12.2057C210.302 12.8309 209.458 13.3171 208.447 13.6644C207.435 14.0117 206.249 14.1854 204.891 14.1854H201.971ZM201.971 11.0595H204.891C205.604 11.0595 206.225 10.9702 206.755 10.7916C207.285 10.6031 207.724 10.3401 208.071 10.0027C208.418 9.65539 208.678 9.23861 208.851 8.75237C209.025 8.2562 209.112 7.70546 209.112 7.10013C209.112 6.52458 209.025 6.00361 208.851 5.53721C208.678 5.07082 208.418 4.67388 208.071 4.34641C207.724 4.01894 207.285 3.77086 206.755 3.60216C206.225 3.42354 205.604 3.33424 204.891 3.33424H201.971V11.0595Z" fill="#333333"/>
</svg>
