<svg width="32" height="32" viewBox="0 0 32 32" fill="none" xmlns="http://www.w3.org/2000/svg">
<path fill-rule="evenodd" clip-rule="evenodd" d="M15.9489 0.484375C18.8335 0.517292 21.4394 1.22624 23.7667 2.61121C26.0663 3.96853 27.9791 5.8931 29.3224 8.20087C30.6989 10.5422 31.4036 13.1639 31.4364 16.066C31.3547 20.0369 30.1022 23.4284 27.6791 26.2405C25.256 29.0526 22.1526 30.7924 18.9399 31.4593V20.3263H21.9772L22.6641 15.9513H18.0649V13.0858C18.0394 12.4918 18.2272 11.9082 18.5945 11.4406C18.9623 10.9717 19.61 10.7253 20.5376 10.7013H23.3149V6.86892C23.2751 6.8561 22.8969 6.8054 22.1805 6.71682C21.3681 6.62176 20.551 6.57098 19.733 6.56472C17.8817 6.57326 16.4175 7.0955 15.3405 8.13143C14.2634 9.16707 13.7133 10.6654 13.6899 12.6265V15.9513H10.1899V20.3263H13.6899V31.4593C9.74526 30.7924 6.64181 29.0526 4.21869 26.2405C1.79556 23.4283 0.543188 20.0369 0.461426 16.066C0.494138 13.1638 1.1988 10.542 2.5754 8.20087C3.9187 5.8931 5.83158 3.96853 8.13113 2.61121C10.4584 1.2265 13.0643 0.517558 15.9489 0.484375V0.484375Z" fill="#333333"/>
</svg>
