<svg width="33" height="33" viewBox="0 0 33 33" fill="none" xmlns="http://www.w3.org/2000/svg">
<path d="M32 16.4814C32.24 7.32143 24.88 -0.118568 15.76 0.0014315C7 0.121431 -0.08 7.36143 -3.71365e-08 16.1214C0.04 22.4014 3.72 27.8014 9 30.4014C9.32 30.5614 9.68 30.3214 9.64 29.9614C9.6 28.9214 9.64 27.8414 9.84 26.9614C10.04 26.0814 10.84 22.7214 11.36 20.5214C11.6 19.4414 11.64 18.3214 11.44 17.2414C11.36 16.8814 11.32 16.4814 11.32 16.0014C11.32 13.6414 12.68 11.8814 14.4 11.8814C15.84 11.8814 16.56 12.9614 16.56 14.2814C16.56 15.7214 15.64 17.9214 15.16 19.9614C14.76 21.6414 16 23.0414 17.68 23.0414C20.72 23.0414 23.04 19.8414 23.04 15.2414C23.04 11.1614 20.12 8.32143 15.92 8.32143C11.08 8.32143 8.24 11.9614 8.24 15.7214C8.24 17.2014 8.8 18.7614 9.52 19.6014C9.64 19.7614 9.68 19.9214 9.64 20.0814C9.52 20.6014 9.24 21.7614 9.16 22.0014C9.08 22.3214 8.92 22.3614 8.6 22.2414C6.48 21.2014 5.12 18.0814 5.12 15.6014C5.12 10.2414 9 5.32143 16.36 5.32143C22.24 5.32143 26.84 9.52143 26.84 15.1614C26.84 21.0414 23.16 25.7214 18 25.7214C16.64 25.7214 15.36 25.1614 14.6 24.4014C14.36 24.1614 13.96 24.2814 13.88 24.6014C13.6 25.6014 13.2 27.2814 13.04 27.8014C12.8 28.7614 12.28 29.8814 11.72 30.8814C11.56 31.1214 11.72 31.4814 12 31.5214C13.32 31.8414 14.68 32.0414 16.08 32.0014C24.56 31.9214 31.76 24.8814 32 16.4814Z" fill="#333333"/>
</svg>
