<svg width="26" height="22" viewBox="0 0 26 22" fill="none" xmlns="http://www.w3.org/2000/svg">
<path d="M25.768 3.06556C24.808 3.48156 23.816 3.76956 22.76 3.89756C23.848 3.25756 24.68 2.23356 25.064 0.985563C24.04 1.59356 22.92 2.00956 21.736 2.26556C20.776 1.24156 19.4 0.601562 17.896 0.601562C14.984 0.601562 12.648 2.96956 12.648 5.84956C12.648 6.26556 12.68 6.64956 12.776 7.03356C8.42397 6.84156 4.58397 4.72956 1.99197 1.56156C0.135969 4.88956 2.21597 7.64156 3.59197 8.56956C2.75997 8.56956 1.92797 8.31356 1.22397 7.92956C1.22397 10.5216 3.04797 12.6656 5.41597 13.1456C4.90397 13.3056 3.75197 13.4016 3.04797 13.2416C3.71997 15.3216 5.67197 16.8576 7.94397 16.8896C6.15197 18.2976 3.52797 19.4176 0.167969 19.0656C2.50397 20.5696 5.25597 21.4336 8.23197 21.4336C17.896 21.4336 23.144 13.4336 23.144 6.52156C23.144 6.29756 23.144 6.07356 23.112 5.84956C24.2 5.04956 25.096 4.12156 25.768 3.06556Z" fill="#333333"/>
</svg>
