<svg width="26" height="25" viewBox="0 0 26 25" fill="none" xmlns="http://www.w3.org/2000/svg">
<path fill-rule="evenodd" clip-rule="evenodd" d="M17.6471 16.1051H18.7992L24.9825 22.3176C25.5804 22.9155 25.5804 23.8926 24.9825 24.4905C24.3846 25.0884 23.4075 25.0884 22.8096 24.4905L16.6117 18.2926V17.1405L16.2179 16.7322C14.1763 18.4822 11.3908 19.3863 8.43042 18.8905C4.37625 18.2051 1.13875 14.8217 0.642921 10.7384C-0.115413 4.56966 5.07625 -0.622004 11.245 0.136329C15.3283 0.632162 18.7117 3.86966 19.3971 7.92383C19.8929 10.8842 18.9888 13.6697 17.2388 15.7113L17.6471 16.1051ZM3.48667 9.54258C3.48667 13.1738 6.41792 16.1051 10.0492 16.1051C13.6804 16.1051 16.6117 13.1738 16.6117 9.54258C16.6117 5.91133 13.6804 2.98008 10.0492 2.98008C6.41792 2.98008 3.48667 5.91133 3.48667 9.54258Z" fill="#333333"/>
</svg>
