<svg width="30" height="31" viewBox="0 0 30 31" fill="none" xmlns="http://www.w3.org/2000/svg">
<path fill-rule="evenodd" clip-rule="evenodd" d="M0.411255 2.3763C0.411255 3.17839 1.0675 3.83464 1.86959 3.83464H3.32792L8.57792 14.9034L6.60917 18.4617C5.54459 20.4159 6.94459 22.793 9.16125 22.793H25.2029C26.005 22.793 26.6613 22.1367 26.6613 21.3346C26.6613 20.5326 26.005 19.8763 25.2029 19.8763H9.16125L10.7654 16.9596H21.63C22.7238 16.9596 23.6863 16.3617 24.1821 15.4576L29.4029 5.99297C29.9425 5.03047 29.2425 3.83464 28.1342 3.83464H6.55084L5.57375 1.74922C5.34042 1.2388 4.81542 0.917969 4.26126 0.917969H1.86959C1.0675 0.917969 0.411255 1.57422 0.411255 2.3763ZM9.16126 24.2513C7.55709 24.2513 6.25917 25.5638 6.25917 27.168C6.25917 28.7721 7.55709 30.0846 9.16126 30.0846C10.7654 30.0846 12.0779 28.7721 12.0779 27.168C12.0779 25.5638 10.7654 24.2513 9.16126 24.2513ZM20.8425 27.168C20.8425 25.5638 22.1404 24.2513 23.7446 24.2513C25.3488 24.2513 26.6613 25.5638 26.6613 27.168C26.6613 28.7721 25.3488 30.0846 23.7446 30.0846C22.1404 30.0846 20.8425 28.7721 20.8425 27.168Z" fill="#333333"/>
</svg>
