<svg width="24" height="24" viewBox="0 0 24 24" fill="none" xmlns="http://www.w3.org/2000/svg">
<path fill-rule="evenodd" clip-rule="evenodd" d="M15.1866 14.4733H15.9766L20.2166 18.7333C20.6266 19.1433 20.6266 19.8133 20.2166 20.2233C19.8066 20.6333 19.1366 20.6333 18.7266 20.2233L14.4766 15.9733V15.1833L14.2066 14.9033C12.8066 16.1033 10.8966 16.7233 8.86656 16.3833C6.08656 15.9133 3.86656 13.5933 3.52656 10.7933C3.00656 6.56328 6.56656 3.00328 10.7966 3.52328C13.5966 3.86328 15.9166 6.08328 16.3866 8.86328C16.7266 10.8933 16.1066 12.8033 14.9066 14.2033L15.1866 14.4733ZM5.47656 9.97328C5.47656 12.4633 7.48656 14.4733 9.97656 14.4733C12.4666 14.4733 14.4766 12.4633 14.4766 9.97328C14.4766 7.48328 12.4666 5.47328 9.97656 5.47328C7.48656 5.47328 5.47656 7.48328 5.47656 9.97328Z" fill="white"/>
</svg>
